<svg xmlns="http://www.w3.org/2000/svg" width="32" height="32" viewBox="0 0 32 32" shape-rendering="crispEdges"><path d="M0 0h32v32H0z" fill="#000"/><path d="M10 19h1v1H10zM13 17h1v1H13zM14 18h1v1H14zM14 21h1v1H14zM14 22h1v1H14zM14 23h1v1H14zM15 19h1v1H15zM15 20h1v1H15zM15 21h1v1H15zM15 22h1v1H15zM15 23h1v1H15zM15 24h1v1H15zM15 7h1v1H15zM16 20h1v1H16zM16 21h1v1H16zM16 22h1v1H16zM16 23h1v1H16zM16 24h1v1H16zM17 20h1v1H17zM17 21h1v1H17zM17 22h1v1H17zM17 23h1v1H17zM18 19h1v1H18zM18 20h1v1H18zM18 21h1v1H18zM18 22h1v1H18zM19 18h1v1H19zM19 19h1v1H19zM19 20h1v1H19zM19 21h1v1H19zM20 17h1v1H20zM20 18h1v1H20zM20 19h1v1H20zM20 20h1v1H20zM21 16h1v1H21zM21 17h1v1H21zM21 18h1v1H21zM21 19h1v1H21zM22 15h1v1H22zM22 16h1v1H22zM22 17h1v1H22zM22 18h1v1H22zM23 10h1v1H23zM23 14h1v1H23zM23 15h1v1H23zM23 16h1v1H23zM23 17h1v1H23zM24 13h1v1H24zM24 14h1v1H24zM24 15h1v1H24zM24 16h1v1H24zM25 11h1v1H25zM25 12h1v1H25zM25 14h1v1H25zM25 15h1v1H25zM26 11h1v1H26zM26 12h1v1H26zM26 13h1v1H26zM26 14h1v1H26zM27 12h1v1H27zM27 13h1v1H27zM5 14h1v1H5zM8 10h1v1H8zM0 9h1v1H0zM10 13h1v1H10zM10 16h1v1H10zM11 16h1v1H11zM11 6h1v1H11zM11 7h1v1H11zM13 5h1v1H13zM14 0h1v1H14zM14 2h1v1H14zM14 6h1v1H14zM14 7h1v1H14zM15 3h1v1H15zM15 4h1v1H15zM16 1h1v1H16zM16 4h1v1H16zM16 7h1v1H16zM17 7h1v1H17zM18 10h1v1H18zM18 6h1v1H18zM18 8h1v1H18zM19 5h1v1H19zM19 6h1v1H19zM2 13h1v1H2zM2 15h1v1H2zM20 6h1v1H20zM20 7h1v1H20zM21 4h1v1H21zM22 8h1v1H22zM3 14h1v1H3zM4 6h1v1H4zM4 9h1v1H4zM5 13h1v1H5zM5 15h1v1H5zM5 4h1v1H5zM6 13h1v1H6zM6 15h1v1H6zM6 17h1v1H6zM6 9h1v1H6zM7 10h1v1H7zM7 12h1v1H7zM7 13h1v1H7zM7 14h1v1H7zM7 16h1v1H7zM7 18h1v1H7zM7 23h1v1H7zM8 13h1v1H8zM8 16h1v1H8zM8 18h1v1H8zM9 11h1v1H9zM9 14h1v1H9zM9 18h1v1H9z" fill="#fff"/></svg>