<svg xmlns="http://www.w3.org/2000/svg" width="32" height="32" xmlns:v="https://vecta.io/nano"><path d="M0 0h32v32H0z" fill="#fff"/><path d="M27 12h1v1h-1z"/><path d="M26 11h1v1h-1z"/><path d="M25 10h1v1h-1z"/><path d="M24 9h1v1h-1z"/><path d="M23 8h1v1h-1z"/><path d="M22 7h1v1h-1z"/><path d="M21 7h1v1h-1z"/><path d="M20 7h1v1h-1z"/><path d="M19 7h1v1h-1z"/><path d="M18 7h1v1h-1z"/><path d="M17 7h1v1h-1z"/><path d="M16 7h1v1h-1z"/><path d="M15 7h1v1h-1z"/><path d="M14 7h1v1h-1z"/><path d="M13 7h1v1h-1z"/><path d="M12 7h1v1h-1z"/><path d="M11 7h1v1h-1z"/><path d="M10 7h1v1h-1z"/><path d="M9 7h1v1H9zm13 1h1v1h-1z"/><path d="M21 8h1v1h-1z"/><path d="M22 9h1v1h-1z"/><path d="M23 10h1v1h-1z"/><path d="M24 11h1v1h-1zm-3-2h1v1h-1z"/><path d="M22 10h1v1h-1z"/><path d="M23 11h1v1h-1z"/><path d="M24 12h1v1h-1z"/><path d="M25 12h1v1h-1z"/><path d="M24 13h1v1h-1z"/><path d="M23 14h1v1h-1z"/><path d="M22 15h1v1h-1z"/><path d="M21 16h1v1h-1z"/><path d="M20 17h1v1h-1z"/><path d="M19 18h1v1h-1z"/><path d="M18 19h1v1h-1z"/><path d="M17 20h1v1h-1z"/><path d="M16 21h1v1h-1z"/><path d="M15 21h1v1h-1z"/><path d="M15 20h1v1h-1z"/><path d="M14 19h1v1h-1z"/><path d="M13 18h1v1h-1z"/><path d="M12 17h1v1h-1z"/><path d="M11 16h1v1h-1z"/><path d="M10 15h1v1h-1z"/><path d="M9 14h1v1H9z"/><path d="M8 13h1v1H8z"/><path d="M9 12h1v1H9z"/><path d="M10 11h1v1h-1z"/><path d="M11 10h1v1h-1z"/><path d="M12 9h1v1h-1zm-5 3h1v1H7z"/><path d="M6 11h1v1H6zm9 11h1v1h-1z"/><path d="M14 22h1v1h-1zm0-2h1v1h-1z"/><path d="M14 21h1v1h-1z"/><path d="M13 21h1v1h-1zm0-2h1v1h-1z"/><path d="M13 20h1v1h-1z"/><path d="M12 20h1v1h-1zm0-2h1v1h-1z"/><path d="M12 19h1v1h-1z"/><path d="M11 19h1v1h-1zm0-2h1v1h-1z"/><path d="M11 18h1v1h-1z"/><path d="M10 18h1v1h-1zm0-2h1v1h-1z"/><path d="M10 17h1v1h-1z"/><path d="M9 17h1v1H9zm0-2h1v1H9z"/><path d="M9 16h1v1H9z"/><path d="M8 16h1v1H8zm0-2h1v1H8z"/><path d="M8 15h1v1H8z"/><path d="M7 15h1v1H7zm0-2h1v1H7z"/><path d="M7 14h1v1H7z"/><path d="M6 14h1v1H6zm0-2h1v1H6z"/><path d="M6 13h1v1H6z"/><path d="M5 12h1v1H5z"/><path d="M5 13h1v1H5zm8 9h1v1h-1z"/><path d="M12 21h1v1h-1z"/><path d="M11 20h1v1h-1z"/><path d="M10 19h1v1h-1z"/><path d="M9 18h1v1H9z"/><path d="M8 17h1v1H8z"/><path d="M7 16h1v1H7z"/><path d="M6 15h1v1H6z"/><path d="M5 14h1v1H5z"/><path d="M4 13h1v1H4zm10 10h1v1h-1zm6-15h1v1h-1z"/><path d="M19 8h1v1h-1z"/><path d="M18 8h1v1h-1z"/><path d="M17 8h1v1h-1z"/><path d="M16 8h1v1h-1z"/><path d="M15 8h1v1h-1z"/><path d="M14 8h1v1h-1z"/><path d="M13 8h1v1h-1z"/><path d="M12 8h1v1h-1z"/><path d="M11 8h1v1h-1z"/><path d="M10 8h1v1h-1z"/><path d="M9 8h1v1H9z"/><path d="M8 8h1v1H8zm3 1h1v1h-1z"/><path d="M10 9h1v1h-1z"/><path d="M9 9h1v1H9z"/><path d="M8 9h1v1H8zm2 1h1v1h-1z"/><path d="M9 10h1v1H9z"/><path d="M8 10h1v1H8z"/><path d="M7 10h1v1H7zm2 1h1v1H9z"/><path d="M8 11h1v1H8z"/><path d="M8 12h1v1H8z"/><path d="M9 13h1v1H9z"/><path d="M10 14h1v1h-1z"/><path d="M11 15h1v1h-1z"/><path d="M12 16h1v1h-1z"/><path d="M13 17h1v1h-1z"/><path d="M14 18h1v1h-1z"/><path d="M15 19h1v1h-1z"/><path d="M16 20h1v1h-1zm-9-9h1v1H7zm0-2h1v1H7z"/><path d="M6 10h1v1H6z"/><path d="M5 11h1v1H5z"/><path d="M4 12h1v1H4zm22 1h1v1h-1z"/><path d="M25 14h1v1h-1z"/><path d="M24 15h1v1h-1z"/><path d="M23 16h1v1h-1z"/><path d="M22 17h1v1h-1z"/><path d="M21 18h1v1h-1z"/><path d="M20 19h1v1h-1z"/><path d="M19 20h1v1h-1z"/><path d="M18 21h1v1h-1z"/><path d="M17 22h1v1h-1z"/><path d="M16 23h1v1h-1zm9-10h1v1h-1z"/><path d="M24 14h1v1h-1z"/><path d="M23 15h1v1h-1z"/><path d="M22 16h1v1h-1z"/><path d="M21 17h1v1h-1z"/><path d="M20 18h1v1h-1z"/><path d="M19 19h1v1h-1z"/><path d="M18 20h1v1h-1z"/><path d="M17 21h1v1h-1z"/><path d="M16 22h1v1h-1z"/><path d="M15 23h1v1h-1z"/><path d="M15 24h1v1h-1z"/><path d="M16 24h1v1h-1z"/><path d="M17 23h1v1h-1z"/><path d="M18 22h1v1h-1z"/><path d="M19 21h1v1h-1z"/><path d="M20 20h1v1h-1z"/><path d="M21 19h1v1h-1z"/><path d="M22 18h1v1h-1z"/><path d="M23 17h1v1h-1z"/><path d="M24 16h1v1h-1z"/><path d="M25 15h1v1h-1z"/><path d="M26 14h1v1h-1z"/><path d="M27 13h1v1h-1z"/><path d="M26 12h1v1h-1z"/><path d="M25 11h1v1h-1z"/><path d="M24 10h1v1h-1z"/><path d="M23 9h1v1h-1zm3 5h1v1h-1z"/></svg>